<svg width="18" height="18" viewBox="0 0 18 18" stroke="" fill="" xmlns="http://www.w3.org/2000/svg">
    <path d="M7 4C7 6 6.66667 7 4 7C1.33333 7 1 6 1 4C1 2 1.375 1 4 1C6.625 1 7 2 7 4Z"
          stroke-width="1.5" stroke-linecap="round" stroke-linejoin="round"/>
    <path d="M7 14C7 16 6.66667 17 4 17C1.33333 17 1 16 1 14C1 12 1.375 11 4 11C6.625 11 7 12 7 14Z"
          stroke-width="1.5" stroke-linecap="round" stroke-linejoin="round"/>
    <path d="M17 4C17 6 16.6667 7 14 7C11.3333 7 11 6 11 4C11 2 11.375 1 14 1C16.625 1 17 2 17 4Z"
          stroke-width="1.5" stroke-linecap="round" stroke-linejoin="round"/>
    <path d="M17 14C17 16 16.6667 17 14 17C11.3333 17 11 16 11 14C11 12 11.375 11 14 11C16.625 11 17 12 17 14Z"
           stroke-width="1.5" stroke-linecap="round" stroke-linejoin="round"/>
</svg>
