<svg width="24" height="24" viewBox="0 0 24 24" fill="none" xmlns="http://www.w3.org/2000/svg">
<path d="M12 17V16M14.0833 9.09091C13.6667 8.43636 12.8333 8 11.9167 8C10.5833 8 9.5 8.94545 9.5 10.1818C9.5 10.1818 9.5 12 12 12C14.5 12 14.5 13.8182 14.5 13.8182C14.5 15.0545 13.4167 16 12.0833 16C11.1667 16 10.3333 15.5636 9.91666 14.9091M12 8V7" stroke="#1B1D21" stroke-width="1.5" stroke-linecap="round" stroke-linejoin="round"/>
<path d="M18 6.6108L19.2121 8L22 5" stroke="#1B1D21" stroke-width="1.5" stroke-linecap="round" stroke-linejoin="round"/>
<path d="M21 12C21 16.9706 16.9706 21 12 21C7.02944 21 3 16.9706 3 12C3 7.02944 7.02944 3 12 3C12.9822 3 13.9276 3.15733 14.8125 3.44818" stroke="#1B1D21" stroke-width="1.5" stroke-linecap="round" stroke-linejoin="round"/>
</svg>
