<svg width="24" height="24" viewBox="0 0 24 24" fill="none" xmlns="http://www.w3.org/2000/svg">
<path d="M11.0854 16.0367L9.6712 14.6225L12.1461 12.1477C12.7319 11.5619 12.7319 10.6121 12.1461 10.0263C11.5603 9.44055 10.6105 9.44055 10.0248 10.0263L6.48922 13.5619C5.12238 14.9287 5.12238 17.1448 6.48922 18.5116C7.85605 19.8785 10.0721 19.8785 11.439 18.5116L18.51 11.4405C19.8769 10.0737 19.8769 7.85764 18.51 6.4908L18.1565 6.13725C16.9849 4.96567 15.0854 4.96567 13.9138 6.13725L12.4996 4.72303C14.4522 2.77041 17.6181 2.77041 19.5707 4.72303L19.9242 5.07659C22.0721 7.22447 22.0721 10.7069 19.9242 12.8548L12.8532 19.9258C10.7053 22.0737 7.22289 22.0737 5.075 19.9258C2.92712 17.7779 2.92712 14.2955 5.075 12.1477L8.61054 8.61212C9.97737 7.24529 12.1934 7.24529 13.5603 8.61212C14.9271 9.97896 14.9271 12.195 13.5603 13.5619L11.0854 16.0367Z" fill="#1B1D21"/>
</svg>
