<svg width="24" height="24" viewBox="0 0 24 24" fill="none" xmlns="http://www.w3.org/2000/svg">
<path opacity="0.3" d="M6.70711 4.79289C6.31658 4.40237 5.68342 4.40237 5.29289 4.79289C4.90237 5.18342 4.90237 5.81658 5.29289 6.20711L11.2929 12.2071C11.6715 12.5857 12.2811 12.5989 12.6757 12.2372L18.6757 6.73715C19.0828 6.36396 19.1103 5.73139 18.7372 5.32428C18.364 4.91716 17.7314 4.88965 17.3243 5.26285L12.0301 10.1159L6.70711 4.79289Z" fill="#1B1D21"/>
<path opacity="0.3" d="M6.70711 11.7929C6.31658 11.4024 5.68342 11.4024 5.29289 11.7929C4.90237 12.1834 4.90237 12.8166 5.29289 13.2071L11.2929 19.2071C11.6715 19.5857 12.2811 19.5989 12.6757 19.2372L18.6757 13.7372C19.0828 13.364 19.1103 12.7314 18.7372 12.3243C18.364 11.9172 17.7314 11.8897 17.3243 12.2628L12.0301 17.1159L6.70711 11.7929Z" fill="#1B1D21"/>
</svg>
