<svg width="24" height="24" viewBox="0 0 24 24" fill="none" xmlns="http://www.w3.org/2000/svg">
<path opacity="0.3" d="M6.70711 19.2071C6.31658 19.5976 5.68342 19.5976 5.29289 19.2071C4.90237 18.8166 4.90237 18.1834 5.29289 17.7929L11.2929 11.7929C11.6715 11.4143 12.2811 11.4011 12.6757 11.7628L18.6757 17.2628C19.0828 17.636 19.1103 18.2686 18.7372 18.6757C18.364 19.0828 17.7314 19.1103 17.3243 18.7372L12.0301 13.8841L6.70711 19.2071Z" fill="#1B1D21"/>
<path d="M6.70711 12.2071C6.31658 12.5976 5.68342 12.5976 5.29289 12.2071C4.90237 11.8166 4.90237 11.1834 5.29289 10.7929L11.2929 4.79289C11.6715 4.41432 12.2811 4.40107 12.6757 4.76285L18.6757 10.2628C19.0828 10.636 19.1103 11.2686 18.7372 11.6757C18.364 12.0828 17.7314 12.1103 17.3243 11.7372L12.0301 6.88414L6.70711 12.2071Z" fill="#1B1D21"/>
</svg>
