<svg width="24" height="24" viewBox="0 0 24 24" fill="none" xmlns="http://www.w3.org/2000/svg">
<path fill-rule="evenodd" clip-rule="evenodd" d="M14.5057 11.9792L12.8721 13.6189V3.39514L12.8652 3.29337C12.8156 2.9273 12.5018 2.64514 12.1221 2.64514C11.7079 2.64514 11.3721 2.98093 11.3721 3.39514V13.6203L9.73653 11.9792L9.65256 11.9064C9.3594 11.688 8.94268 11.7113 8.67587 11.977C8.38238 12.2693 8.3814 12.7442 8.67369 13.0377L11.5897 15.9657L11.6 15.9746C11.6202 15.9942 11.6415 16.0127 11.6638 16.0299L11.6739 16.0387C11.8555 16.1739 12.0845 16.2163 12.2958 16.1659C12.4426 16.1311 12.5727 16.0531 12.672 15.9461L15.5685 13.0377L15.641 12.9534C15.8582 12.6594 15.8332 12.2427 15.5663 11.977L15.4821 11.9046C15.188 11.6873 14.7714 11.7124 14.5057 11.9792ZM17.9044 21.1172C20.2519 21.0085 22.1211 19.0714 22.1211 16.6971V11.8131L22.1163 11.6042C22.0073 9.25122 20.0665 7.37805 17.6871 7.37805H16.7541L16.6523 7.3849C16.2862 7.43456 16.0041 7.74836 16.0041 8.12805C16.0041 8.54227 16.3399 8.87805 16.7541 8.87805H17.6871L17.8595 8.88303C19.4001 8.97225 20.6211 10.2493 20.6211 11.8131V16.6971L20.6161 16.869C20.5272 18.4047 19.2542 19.6221 17.6961 19.6221H6.55609L6.38366 19.6171C4.84311 19.5278 3.62109 18.25 3.62109 16.6871V11.8021L3.62606 11.6303C3.71505 10.0957 4.98873 8.87805 6.54609 8.87805H7.48809L7.58986 8.8712C7.95594 8.82154 8.23809 8.50775 8.23809 8.12805C8.23809 7.71384 7.90231 7.37805 7.48809 7.37805H6.54609L6.33174 7.38315C3.9879 7.49498 2.12109 9.43082 2.12109 11.8021V16.6871L2.12592 16.8958C2.23495 19.2481 4.17686 21.1221 6.55609 21.1221H17.6961L17.9044 21.1172Z" fill="#1B1D21"/>
</svg>
