<svg width="24" height="24" viewBox="0 0 24 24" fill="none" xmlns="http://www.w3.org/2000/svg">
<path fill-rule="evenodd" clip-rule="evenodd" d="M13.1108 5.01676L3.69576 16.7918C3.52476 17.0058 3.46176 17.2818 3.52476 17.5468L4.20576 20.4318L7.24476 20.3938C7.53376 20.3908 7.80076 20.2618 7.97776 20.0418C11.1948 16.0168 17.3278 8.34276 17.5018 8.11776C17.6658 7.85176 17.7298 7.47576 17.6438 7.11376C17.5558 6.74276 17.3248 6.42776 16.9918 6.22676C16.9208 6.17776 15.2358 4.86976 15.1838 4.82876C14.5498 4.32076 13.6248 4.40876 13.1108 5.01676V5.01676ZM3.61376 21.9398C3.26676 21.9398 2.96476 21.7018 2.88376 21.3628L2.06476 17.8918C1.89576 17.1728 2.06376 16.4308 2.52476 15.8548L11.9448 4.07276C11.9488 4.06876 11.9518 4.06376 11.9558 4.05976C12.9888 2.82476 14.8568 2.64276 16.1168 3.65376C16.1668 3.69276 17.8398 4.99276 17.8398 4.99276C18.4478 5.35476 18.9228 6.00176 19.1028 6.76776C19.2818 7.52576 19.1518 8.30776 18.7348 8.96876C18.7038 9.01776 18.6768 9.05976 9.14876 20.9798C8.68976 21.5518 8.00176 21.8848 7.26276 21.8938L3.62376 21.9398H3.61376Z" fill="#1B1D21"/>
<path fill-rule="evenodd" clip-rule="evenodd" d="M20.751 21.9397H13.498C13.084 21.9397 12.748 21.6037 12.748 21.1897C12.748 20.7757 13.084 20.4397 13.498 20.4397H20.751C21.165 20.4397 21.501 20.7757 21.501 21.1897C21.501 21.6037 21.165 21.9397 20.751 21.9397" fill="#1B1D21"/>
<path fill-rule="evenodd" clip-rule="evenodd" d="M16.2234 11.6849C16.0634 11.6849 15.9034 11.6339 15.7664 11.5299L10.3144 7.34187C9.98642 7.08987 9.92442 6.61987 10.1764 6.28987C10.4294 5.96187 10.8994 5.90087 11.2284 6.15287L16.6814 10.3399C17.0094 10.5919 17.0714 11.0629 16.8184 11.3919C16.6714 11.5839 16.4484 11.6849 16.2234 11.6849" fill="#1B1D21"/>
</svg>
