<svg width="25" height="24" viewBox="0 0 25 24" fill="none" xmlns="http://www.w3.org/2000/svg">
<path d="M13 17V16M15.0833 9.09091C14.6667 8.43636 13.8333 8 12.9167 8C11.5833 8 10.5 8.94545 10.5 10.1818C10.5 10.1818 10.5 12 13 12C15.5 12 15.5 13.8182 15.5 13.8182C15.5 15.0545 14.4167 16 13.0833 16C12.1667 16 11.3333 15.5636 10.9167 14.9091M13 8V7" stroke="#1B1D21" stroke-width="1.5" stroke-linecap="round" stroke-linejoin="round"/>
<path d="M6.1054 6.21485C9.30042 2.40718 14.9772 1.91053 18.7849 5.10554C22.5926 8.30056 23.0892 13.9774 19.8942 17.785C16.6992 21.5927 11.0224 22.0894 7.21471 18.8943C4.66281 16.753 3.59811 13.497 4.1352 10.436" stroke="#1B1D21" stroke-width="1.5" stroke-linecap="round" stroke-linejoin="round"/>
<path d="M1.4082 13.369L3.97935 10.3048L7.04353 12.876" stroke="#1B1D21" stroke-width="1.5" stroke-linecap="round" stroke-linejoin="round"/>
</svg>
