<svg width="24" height="24" viewBox="0 0 24 24" fill="none" xmlns="http://www.w3.org/2000/svg">
<path fill-rule="evenodd" clip-rule="evenodd" d="M16.3345 2.00024H7.66549C4.26791 2.00024 2.00049 4.43284 2.00049 7.91624V16.0842C2.00049 19.5709 4.26186 22.0002 7.66549 22.0002H16.3335C19.7381 22.0002 22.0005 19.5709 22.0005 16.0842V7.91624C22.0005 4.42975 19.7383 2.00024 16.3345 2.00024ZM7.66549 3.50024H16.3345C18.885 3.50024 20.5005 5.23521 20.5005 7.91624V16.0842C20.5005 18.7654 18.8849 20.5002 16.3335 20.5002H7.66549C5.11525 20.5002 3.50049 18.7656 3.50049 16.0842V7.91624C3.50049 5.23862 5.12083 3.50024 7.66549 3.50024ZM11.9998 7.45434C12.414 7.45434 12.7498 7.79013 12.7498 8.20434C12.7498 8.58404 12.4676 8.89784 12.1016 8.9475L11.9898 8.95434C11.5756 8.95434 11.2398 8.61856 11.2398 8.20434C11.2398 7.82465 11.5219 7.51085 11.888 7.46119L11.9998 7.45434ZM11.9898 10.6271C12.3695 10.6271 12.6833 10.9093 12.7329 11.2754L12.7398 11.3771V15.7961C12.7398 16.2104 12.404 16.5461 11.9898 16.5461C11.6101 16.5461 11.2963 16.264 11.2466 15.8979L11.2398 15.7961V11.3771C11.2398 10.9629 11.5756 10.6271 11.9898 10.6271Z" fill="#1B1D21"/>
</svg>
