<svg width="24" height="24" viewBox="0 0 24 24" fill="none" xmlns="http://www.w3.org/2000/svg">
<path fill-rule="evenodd" clip-rule="evenodd" d="M12.6805 22H17.5665C20.0105 22 21.9995 20.011 21.9995 17.565V6.436C21.9995 3.99 20.0105 2 17.5665 2H12.6915C10.2455 2 8.25551 3.99 8.25551 6.436V7.368C8.25551 7.782 8.59151 8.118 9.00551 8.118C9.41951 8.118 9.75551 7.782 9.75551 7.368V6.436C9.75551 4.816 11.0725 3.5 12.6915 3.5H17.5665C19.1835 3.5 20.4995 4.816 20.4995 6.436V17.565C20.4995 19.184 19.1835 20.5 17.5665 20.5H12.6805C11.0685 20.5 9.75551 19.188 9.75551 17.576V16.633C9.75551 16.219 9.41951 15.883 9.00551 15.883C8.59151 15.883 8.25551 16.219 8.25551 16.633V17.576C8.25551 20.016 10.2415 22 12.6805 22" fill="#1B1D21"/>
<path fill-rule="evenodd" clip-rule="evenodd" d="M2.21291 12.75H14.2539C14.6679 12.75 15.0039 12.414 15.0039 12C15.0039 11.586 14.6679 11.25 14.2539 11.25H2.21291C1.79891 11.25 1.46291 11.586 1.46291 12C1.46291 12.414 1.79891 12.75 2.21291 12.75" fill="#1B1D21"/>
<path fill-rule="evenodd" clip-rule="evenodd" d="M5.14038 15.666C5.33238 15.666 5.52538 15.593 5.67138 15.445C5.96338 15.151 5.96238 14.677 5.66938 14.385L3.27538 12L5.66938 9.61596C5.96238 9.32396 5.96438 8.84996 5.67138 8.55596C5.37938 8.26196 4.90538 8.26196 4.61138 8.55396L1.68338 11.469C1.54138 11.609 1.46238 11.801 1.46238 12C1.46238 12.199 1.54138 12.391 1.68338 12.531L4.61138 15.447C4.75738 15.593 4.94938 15.666 5.14038 15.666" fill="#1B1D21"/>
</svg>
