<svg width="24" height="24" viewBox="0 0 24 24" fill="none" xmlns="http://www.w3.org/2000/svg">
<path d="M8.33328 14.2818C8.95637 14.2818 9.46149 13.7767 9.46149 13.1536C9.46149 12.5305 8.95637 12.0254 8.33328 12.0254C7.71019 12.0254 7.20508 12.5305 7.20508 13.1536C7.20508 13.7767 7.71019 14.2818 8.33328 14.2818Z" fill="#1B1D21"/>
<path d="M15.1028 14.2818C15.7259 14.2818 16.231 13.7767 16.231 13.1536C16.231 12.5305 15.7259 12.0254 15.1028 12.0254C14.4797 12.0254 13.9746 12.5305 13.9746 13.1536C13.9746 13.7767 14.4797 14.2818 15.1028 14.2818Z" fill="#1B1D21"/>
<path d="M18.4874 10.9322C17.9459 7.71681 15.148 5.25732 11.7746 5.25732C8.35616 5.25732 4.67821 8.08912 4.97155 12.5342C7.75821 11.3948 9.85668 8.91271 10.4546 5.88912C11.9326 8.8563 14.9674 10.8983 18.4874 10.9322Z" fill="#1B1D21"/>
<path d="M3.25586 18.2308V11.7436C3.25586 6.91464 7.1705 3 11.9994 3V3C16.8284 3 20.743 6.91464 20.743 11.7436V19.9052C20.743 20.5381 20.2299 21.0513 19.5969 21.0513H10.5892" stroke="#1B1D21" stroke-width="1.5" stroke-linecap="round"/>
<path d="M3.32051 13.4356V17.3844C3.32051 17.8871 2.91298 18.2946 2.41026 18.2946C1.90754 18.2946 1.5 17.8871 1.5 17.3844V13.4356C1.5 12.9329 1.90754 12.5254 2.41026 12.5254C2.91298 12.5254 3.32051 12.9329 3.32051 13.4356Z" fill="#1B1D21" stroke="#1B1D21"/>
<path d="M22.5002 13.4356V17.3844C22.5002 17.8871 22.0927 18.2946 21.5899 18.2946C21.0872 18.2946 20.6797 17.8871 20.6797 17.3844V13.4356C20.6797 12.9329 21.0872 12.5254 21.5899 12.5254C22.0927 12.5254 22.5002 12.9329 22.5002 13.4356Z" fill="#1B1D21" stroke="#1B1D21"/>
</svg>
