<svg width="24" height="24" viewBox="0 0 24 24" fill="none" xmlns="http://www.w3.org/2000/svg">
<path fill-rule="evenodd" clip-rule="evenodd" d="M7.643 3.5C4.739 3.5 3.5 4.976 3.5 8.433V16.232C3.5 19.416 5.258 21.169 8.45 21.169H16.232C19.416 21.169 21.169 19.416 21.169 16.232V16.229L21.197 11.264C21.197 7.865 20.031 6.54 17.036 6.54H14.206C13.257 6.539 12.351 6.086 11.781 5.328L10.868 4.114C10.581 3.729 10.122 3.501 9.642 3.5H7.643ZM16.232 22.669H8.45C4.472 22.669 2 20.202 2 16.232V8.433C2 4.164 3.899 2 7.643 2H9.643C10.594 2.001 11.5 2.455 12.068 3.214L12.979 4.426C13.268 4.81 13.727 5.039 14.207 5.04H17.036C20.898 5.04 22.697 7.019 22.697 11.268L22.669 16.235C22.668 20.203 20.202 22.669 16.232 22.669V22.669Z" fill="#1B1D21"/>
<path fill-rule="evenodd" clip-rule="evenodd" d="M12.2384 10.0063C12.1979 10.0063 12.098 10.0174 12.0449 10.1235L11.2308 11.7513C11.102 12.0085 10.8537 12.1873 10.5666 12.2283L8.74399 12.4909C8.62361 12.5083 8.5826 12.5975 8.57011 12.6349C8.55897 12.671 8.54113 12.7629 8.62406 12.8422L9.94194 14.1084C10.1519 14.3103 10.2473 14.6015 10.1974 14.8864L9.8871 16.6742C9.86793 16.7861 9.93793 16.8512 9.96914 16.8734C10.0021 16.8984 10.0904 16.9479 10.1996 16.8908L11.8292 16.046C12.086 15.9136 12.3918 15.9136 12.6477 16.046L14.2768 16.8904C14.3865 16.947 14.4747 16.8975 14.5082 16.8734C14.5394 16.8512 14.6094 16.7861 14.5902 16.6742L14.279 14.8864C14.2291 14.6015 14.3245 14.3103 14.5345 14.1084L15.8524 12.8422C15.9357 12.7629 15.9179 12.6706 15.9063 12.6349C15.8943 12.5975 15.8532 12.5083 15.7329 12.4909L13.9103 12.2283C13.6236 12.1873 13.3753 12.0085 13.2465 11.7508L12.4315 10.1235C12.3789 10.0174 12.279 10.0063 12.2384 10.0063M10.0971 17.5854C9.91297 17.5854 9.73018 17.5275 9.57369 17.4133C9.30352 17.2154 9.17111 16.8886 9.22862 16.5596L9.53892 14.7718C9.55051 14.7054 9.52777 14.638 9.47873 14.5908L8.16085 13.3246C7.91831 13.0923 7.83138 12.749 7.93392 12.4303C8.03735 12.1079 8.31109 11.8774 8.64859 11.8293L10.4712 11.5667C10.5416 11.5569 10.6022 11.5136 10.6325 11.4521L11.4471 9.82393C11.5973 9.52388 11.9005 9.33752 12.2384 9.33752V9.33752C12.5764 9.33752 12.8795 9.52388 13.0298 9.82393L13.8448 11.4517C13.8755 11.5136 13.9357 11.5569 14.0057 11.5667L15.8283 11.8293C16.1658 11.8774 16.4395 12.1079 16.543 12.4303C16.6455 12.749 16.5581 13.0923 16.3156 13.3246L14.9977 14.5908C14.9487 14.638 14.9264 14.7054 14.938 14.7713L15.2487 16.5596C15.3058 16.889 15.1734 17.2158 14.9027 17.4133C14.6286 17.6144 14.2714 17.6416 13.9687 17.4838L12.3401 16.6398C12.2763 16.6068 12.2001 16.6068 12.1363 16.6398L10.5077 17.4842C10.3775 17.552 10.2371 17.5854 10.0971 17.5854" fill="#1B1D21"/>
<path d="M12.0449 10.1235L12.3244 10.2633L12.3244 10.2633L12.0449 10.1235ZM11.2308 11.7513L11.5103 11.8912L11.5103 11.8911L11.2308 11.7513ZM10.5666 12.2283L10.5224 11.9189L10.522 11.919L10.5666 12.2283ZM8.74399 12.4909L8.69942 12.1816L8.69931 12.1816L8.74399 12.4909ZM8.57011 12.6349L8.27358 12.5361L8.27151 12.5427L8.57011 12.6349ZM8.62406 12.8422L8.84056 12.6169L8.84012 12.6164L8.62406 12.8422ZM9.94194 14.1084L10.1586 13.8832L10.1584 13.883L9.94194 14.1084ZM10.1974 14.8864L9.8896 14.8324L9.88951 14.8329L10.1974 14.8864ZM9.8871 16.6742L9.57921 16.6207L9.57909 16.6214L9.8871 16.6742ZM9.96914 16.8734L10.1578 16.6242L10.1508 16.6192L9.96914 16.8734ZM10.1996 16.8908L10.0558 16.6134L10.0549 16.6139L10.1996 16.8908ZM11.8292 16.046L11.6859 15.7682L11.6853 15.7685L11.8292 16.046ZM12.6477 16.046L12.7915 15.7685L12.7913 15.7684L12.6477 16.046ZM14.2768 16.8904L14.133 17.1678L14.1334 17.1681L14.2768 16.8904ZM14.5082 16.8734L14.3265 16.6192L14.3256 16.6198L14.5082 16.8734ZM14.5902 16.6742L14.8982 16.6214L14.8981 16.6206L14.5902 16.6742ZM14.279 14.8864L14.5869 14.8328L14.5868 14.8324L14.279 14.8864ZM14.5345 14.1084L14.318 13.883L14.3178 13.8832L14.5345 14.1084ZM15.8524 12.8422L15.6369 12.6159L15.6359 12.6169L15.8524 12.8422ZM15.9063 12.6349L15.6088 12.7305L15.6091 12.7315L15.9063 12.6349ZM15.7329 12.4909L15.7775 12.1816L15.7774 12.1816L15.7329 12.4909ZM13.9103 12.2283L13.9549 11.919L13.9546 11.919L13.9103 12.2283ZM13.2465 11.7508L13.526 11.6111L13.5259 11.6109L13.2465 11.7508ZM12.4315 10.1235L12.1515 10.2623L12.1521 10.2635L12.4315 10.1235ZM9.57369 17.4133L9.389 17.6654L9.38955 17.6658L9.57369 17.4133ZM9.22862 16.5596L9.53645 16.6134L9.53652 16.613L9.22862 16.5596ZM9.53892 14.7718L9.23107 14.7181L9.23102 14.7183L9.53892 14.7718ZM9.47873 14.5908L9.69557 14.3658L9.69524 14.3654L9.47873 14.5908ZM8.16085 13.3246L8.37735 13.0993L8.377 13.0989L8.16085 13.3246ZM7.93392 12.4303L8.23141 12.526L8.23147 12.5258L7.93392 12.4303ZM8.64859 11.8293L8.69273 12.1387L8.69315 12.1386L8.64859 11.8293ZM10.4712 11.5667L10.4281 11.2572L10.4266 11.2574L10.4712 11.5667ZM10.6325 11.4521L10.3531 11.3123L10.3522 11.314L10.6325 11.4521ZM11.4471 9.82393L11.1677 9.68401L11.1676 9.68411L11.4471 9.82393ZM13.0298 9.82393L13.3092 9.68402L13.3092 9.68401L13.0298 9.82393ZM13.8448 11.4517L14.1247 11.3127L14.1242 11.3118L13.8448 11.4517ZM14.0057 11.5667L14.0503 11.2574L14.0491 11.2572L14.0057 11.5667ZM15.8283 11.8293L15.7837 12.1386L15.7842 12.1387L15.8283 11.8293ZM16.543 12.4303L16.2454 12.5258L16.2455 12.526L16.543 12.4303ZM16.3156 13.3246L16.0994 13.0989L16.0991 13.0993L16.3156 13.3246ZM14.9977 14.5908L14.7812 14.3654L14.7809 14.3658L14.9977 14.5908ZM14.938 14.7713L15.2458 14.7178L15.2457 14.7173L14.938 14.7713ZM15.2487 16.5596L15.5566 16.5062L15.5566 16.5061L15.2487 16.5596ZM14.9027 17.4133L14.7185 17.1609L14.7179 17.1613L14.9027 17.4133ZM13.9687 17.4838L14.1132 17.2067L14.1125 17.2063L13.9687 17.4838ZM12.3401 16.6398L12.4839 16.3624L12.4837 16.3623L12.3401 16.6398ZM12.1363 16.6398L11.9927 16.3623L11.9925 16.3624L12.1363 16.6398ZM10.5077 17.4842L10.3639 17.2068L10.3634 17.207L10.5077 17.4842ZM12.2384 9.69377C12.1562 9.69377 11.8987 9.71726 11.7654 9.98377L12.3244 10.2633C12.3207 10.2707 12.3138 10.281 12.3028 10.291C12.2921 10.3008 12.281 10.3073 12.2717 10.3114C12.2554 10.3185 12.2437 10.3188 12.2384 10.3188V9.69377ZM11.7654 9.98374L10.9514 11.6115L11.5103 11.8911L12.3244 10.2633L11.7654 9.98374ZM10.9514 11.6113C10.8687 11.7765 10.7085 11.8924 10.5224 11.9189L10.6107 12.5377C10.9988 12.4822 11.3353 12.2405 11.5103 11.8912L10.9514 11.6113ZM10.522 11.919L8.69942 12.1816L8.78855 12.8002L10.6111 12.5376L10.522 11.919ZM8.69931 12.1816C8.4058 12.224 8.30133 12.453 8.27365 12.5361L8.86658 12.7337C8.86462 12.7396 8.8598 12.7526 8.84639 12.7672C8.83889 12.7753 8.829 12.7835 8.81695 12.7901C8.80464 12.7968 8.79429 12.7994 8.78866 12.8002L8.69931 12.1816ZM8.27151 12.5427C8.24684 12.6227 8.19749 12.8665 8.408 13.068L8.84012 12.6164C8.8458 12.6219 8.85374 12.6316 8.86051 12.6456C8.86713 12.6593 8.87062 12.673 8.87206 12.6849C8.87464 12.7063 8.8706 12.7209 8.86871 12.7271L8.27151 12.5427ZM8.40755 13.0676L9.72544 14.3337L10.1584 13.883L8.84056 12.6169L8.40755 13.0676ZM9.72532 14.3336C9.86084 14.464 9.92146 14.6506 9.8896 14.8324L10.5052 14.9403C10.5732 14.5523 10.443 14.1567 10.1586 13.8832L9.72532 14.3336ZM9.88951 14.8329L9.57921 16.6207L10.195 16.7276L10.5053 14.9398L9.88951 14.8329ZM9.57909 16.6214C9.52994 16.9083 9.71673 17.0772 9.7875 17.1277L10.1508 16.6192C10.159 16.6251 10.1702 16.6343 10.1801 16.6516C10.1858 16.6615 10.1912 16.6742 10.1941 16.6892C10.1971 16.7046 10.1967 16.7178 10.1951 16.7269L9.57909 16.6214ZM9.78056 17.1226C9.8567 17.1803 10.0794 17.3062 10.3443 17.1678L10.0549 16.6139C10.0601 16.6112 10.07 16.6073 10.0837 16.6056C10.0971 16.6039 10.1096 16.6049 10.12 16.6071C10.1382 16.6109 10.1497 16.6182 10.1577 16.6243L9.78056 17.1226ZM10.3435 17.1683L11.973 16.3234L11.6853 15.7685L10.0558 16.6134L10.3435 17.1683ZM11.9724 16.3237C12.1395 16.2376 12.3384 16.2378 12.5041 16.3235L12.7913 15.7684C12.4452 15.5893 12.0324 15.5896 11.6859 15.7682L11.9724 16.3237ZM12.5039 16.3234L14.133 17.1678L14.4206 16.6129L12.7915 15.7685L12.5039 16.3234ZM14.1334 17.1681C14.3984 17.3048 14.6193 17.1785 14.6908 17.127L14.3256 16.6198C14.3301 16.6166 14.3401 16.6098 14.3575 16.6062C14.3673 16.6042 14.3793 16.6032 14.3922 16.6048C14.4055 16.6064 14.4151 16.6101 14.4201 16.6127L14.1334 17.1681ZM14.6898 17.1277C14.7606 17.0772 14.9474 16.9083 14.8982 16.6214L14.2822 16.7269C14.2806 16.7178 14.2802 16.7046 14.2832 16.6892C14.2862 16.6742 14.2915 16.6615 14.2972 16.6516C14.3071 16.6343 14.3183 16.6251 14.3265 16.6192L14.6898 17.1277ZM14.8981 16.6206L14.5869 14.8328L13.9711 14.94L14.2823 16.7277L14.8981 16.6206ZM14.5868 14.8324C14.555 14.6506 14.6156 14.464 14.7511 14.3336L14.3178 13.8832C14.0334 14.1567 13.9032 14.5523 13.9712 14.9403L14.5868 14.8324ZM14.751 14.3337L16.0689 13.0676L15.6359 12.6169L14.318 13.883L14.751 14.3337ZM16.0678 13.0686C16.2792 12.8674 16.2309 12.6226 16.2035 12.5383L15.6091 12.7315C15.606 12.722 15.6021 12.7065 15.6047 12.6848C15.6061 12.6727 15.6097 12.6589 15.6164 12.6451C15.6232 12.631 15.6312 12.6213 15.6369 12.6159L16.0678 13.0686ZM16.2038 12.5393C16.176 12.4526 16.0709 12.224 15.7775 12.1816L15.6882 12.8002C15.6826 12.7994 15.6722 12.7968 15.6599 12.7901C15.6478 12.7835 15.6378 12.7752 15.6302 12.7669C15.6166 12.7521 15.6114 12.7386 15.6088 12.7305L16.2038 12.5393ZM15.7774 12.1816L13.9549 11.919L13.8657 12.5376L15.6883 12.8002L15.7774 12.1816ZM13.9546 11.919C13.7689 11.8924 13.6088 11.7767 13.526 11.6111L12.967 11.8906C13.1418 12.2404 13.4783 12.4822 13.866 12.5377L13.9546 11.919ZM13.5259 11.6109L12.7109 9.98359L12.1521 10.2635L12.967 11.8908L13.5259 11.6109ZM12.7115 9.98472C12.5788 9.71713 12.3203 9.69377 12.2384 9.69377V10.3188C12.2332 10.3188 12.2214 10.3185 12.205 10.3113C12.1955 10.3072 12.1843 10.3006 12.1735 10.2907C12.1624 10.2804 12.1553 10.27 12.1515 10.2623L12.7115 9.98472ZM10.0971 17.2729C9.97909 17.2729 9.86079 17.236 9.75784 17.1609L9.38955 17.6658C9.59957 17.819 9.84685 17.8979 10.0971 17.8979V17.2729ZM9.75839 17.1613C9.58345 17.0331 9.49954 16.8245 9.53645 16.6134L8.92079 16.5058C8.84267 16.9527 9.02359 17.3977 9.389 17.6654L9.75839 17.1613ZM9.53652 16.613L9.84681 14.8252L9.23102 14.7183L8.92072 16.5061L9.53652 16.613ZM9.84677 14.8255C9.87674 14.6537 9.81707 14.4828 9.69557 14.3658L9.26189 14.8158C9.23848 14.7932 9.22428 14.757 9.23107 14.7181L9.84677 14.8255ZM9.69524 14.3654L8.37735 13.0993L7.94434 13.55L9.26223 14.8161L9.69524 14.3654ZM8.377 13.0989C8.22068 12.9492 8.16557 12.7306 8.23141 12.526L7.63643 12.3346C7.49719 12.7674 7.61595 13.2355 7.9447 13.5503L8.377 13.0989ZM8.23147 12.5258C8.29811 12.3181 8.47289 12.17 8.69273 12.1387L8.60445 11.5199C8.14929 11.5849 7.7766 11.8978 7.63636 12.3348L8.23147 12.5258ZM8.69315 12.1386L10.5157 11.876L10.4266 11.2574L8.60402 11.52L8.69315 12.1386ZM10.5143 11.8762C10.6837 11.8526 10.8352 11.7479 10.9129 11.5902L10.3522 11.314C10.3693 11.2794 10.3995 11.2611 10.4281 11.2572L10.5143 11.8762ZM10.912 11.5919L11.7266 9.96374L11.1676 9.68411L10.3531 11.3123L10.912 11.5919ZM11.7265 9.96385C11.8233 9.77052 12.0177 9.65002 12.2384 9.65002V9.02502C11.7833 9.02502 11.3713 9.27725 11.1677 9.68401L11.7265 9.96385ZM12.2384 9.65002C12.4591 9.65002 12.6536 9.77052 12.7504 9.96385L13.3092 9.68401C13.1055 9.27725 12.6936 9.02502 12.2384 9.02502V9.65002ZM12.7504 9.96384L13.5653 11.5916L14.1242 11.3118L13.3092 9.68402L12.7504 9.96384ZM13.5649 11.5906C13.6422 11.7464 13.7918 11.8523 13.9624 11.8762L14.0491 11.2572C14.0797 11.2615 14.1089 11.2808 14.1247 11.3127L13.5649 11.5906ZM13.9612 11.876L15.7837 12.1386L15.8729 11.52L14.0503 11.2574L13.9612 11.876ZM15.7842 12.1387C16.004 12.17 16.1788 12.3181 16.2454 12.5258L16.8405 12.3348C16.7003 11.8978 16.3276 11.5849 15.8724 11.5199L15.7842 12.1387ZM16.2455 12.526C16.3112 12.7303 16.256 12.949 16.0994 13.0989L16.5317 13.5503C16.8602 13.2357 16.9798 12.7678 16.8404 12.3346L16.2455 12.526ZM16.0991 13.0993L14.7812 14.3654L15.2142 14.8161L16.5321 13.55L16.0991 13.0993ZM14.7809 14.3658C14.6585 14.4836 14.6002 14.6549 14.6302 14.8254L15.2457 14.7173C15.2525 14.7558 15.2388 14.7924 15.2145 14.8158L14.7809 14.3658ZM14.6301 14.8248L14.9408 16.6131L15.5566 16.5061L15.2458 14.7178L14.6301 14.8248ZM14.9408 16.6129C14.9775 16.825 14.8933 17.0333 14.7185 17.1609L15.087 17.6658C15.4534 17.3983 15.634 16.9531 15.5566 16.5062L14.9408 16.6129ZM14.7179 17.1613C14.54 17.2918 14.3106 17.3096 14.1132 17.2067L13.8242 17.7609C14.2323 17.9736 14.7171 17.937 15.0875 17.6654L14.7179 17.1613ZM14.1125 17.2063L12.4839 16.3624L12.1963 16.9173L13.8249 17.7613L14.1125 17.2063ZM12.4837 16.3623C12.3299 16.2827 12.1466 16.2827 11.9927 16.3623L12.28 16.9174C12.2536 16.931 12.2228 16.931 12.1965 16.9174L12.4837 16.3623ZM11.9925 16.3624L10.3639 17.2068L10.6516 17.7617L12.2802 16.9173L11.9925 16.3624ZM10.3634 17.207C10.2779 17.2515 10.187 17.2729 10.0971 17.2729V17.8979C10.2872 17.8979 10.4771 17.8525 10.652 17.7614L10.3634 17.207Z" fill="#1B1D21"/>
</svg>
