<svg width="24" height="24" viewBox="0 0 24 24" fill="none" xmlns="http://www.w3.org/2000/svg">
<path d="M19.4359 13.3365C19.5179 12.8853 19.5619 12.4241 19.5619 11.9629C19.5619 10.9402 19.3619 9.94761 18.9679 9.01517C18.5878 8.1128 18.0417 7.30267 17.3477 6.60684C16.6594 5.91507 15.8435 5.36409 14.9454 4.98458C14.0132 4.58955 13.0251 4.38902 12.005 4.38902C11.5249 4.38902 11.0429 4.43514 10.5748 4.52538C9.92717 4.18132 9.20553 4.00097 8.47256 4C7.27842 4 6.15428 4.46723 5.31017 5.31345C4.89365 5.72887 4.5634 6.22295 4.33851 6.76712C4.11363 7.31129 3.99858 7.89475 4.00001 8.48377C4.00001 9.24577 4.19604 9.99574 4.56208 10.6575C4.48807 11.0866 4.44807 11.5258 4.44807 11.9629C4.44807 12.9856 4.64809 13.9782 5.04214 14.9106C5.42219 15.813 5.96626 16.6231 6.66034 17.319C7.35443 18.0148 8.16253 18.5602 9.06264 18.9412C9.99475 19.3363 10.9829 19.5368 12.003 19.5368C12.4471 19.5368 12.8911 19.4967 13.3272 19.4185C13.9972 19.7975 14.7533 20 15.5274 20C16.7216 20 17.8457 19.5348 18.6898 18.6866C19.5359 17.8403 20 16.7134 20 15.5162C20.002 14.7542 19.806 14.0023 19.4359 13.3365ZM12.035 16.6031C9.35067 16.6031 8.15052 15.2796 8.15052 14.289C8.15052 13.7797 8.52457 13.4247 9.04063 13.4247C10.1888 13.4247 9.89274 15.0791 12.035 15.0791C13.1331 15.0791 13.7392 14.4815 13.7392 13.8699C13.7392 13.5029 13.5592 13.0939 12.8351 12.9154L10.4468 12.3178C8.52457 11.8346 8.17453 10.7918 8.17453 9.81326C8.17453 7.77992 10.0848 7.01592 11.879 7.01592C13.5312 7.01592 15.4794 7.93232 15.4794 9.15152C15.4794 9.6749 15.0274 9.97769 14.5113 9.97769C13.5312 9.97769 13.7112 8.61812 11.737 8.61812C10.7568 8.61812 10.2148 9.06329 10.2148 9.69896C10.2148 10.3346 10.9889 10.5372 11.661 10.6916L13.4292 11.0846C15.3654 11.5177 15.8555 12.6507 15.8555 13.7175C15.8555 15.3678 14.5893 16.6031 12.035 16.6031Z" fill="#1B1D21"/>
</svg>
