<svg width="24" height="24" viewBox="0 0 24 24" fill="none" xmlns="http://www.w3.org/2000/svg">
<path d="M20.5644 6.81264C20.6971 6.34381 20.5644 6 19.9367 6H17.8573C17.3282 6 17.0865 6.29743 16.9537 6.6241C16.9537 6.6241 15.8965 9.36548 14.3984 11.143C13.9148 11.6602 13.6939 11.8236 13.4303 11.8236C13.2985 11.8236 13.1069 11.6602 13.1069 11.1914V6.81264C13.1069 6.25004 12.9543 6 12.5134 6H9.24597C8.91601 6 8.71689 6.26012 8.71689 6.50815C8.71689 7.0405 9.46595 7.1635 9.54275 8.66375V11.9183C9.54275 12.6312 9.42233 12.7612 9.15684 12.7612C8.45235 12.7612 6.73804 10.0097 5.72065 6.86002C5.52248 6.24803 5.32241 6.00101 4.79143 6.00101H2.71303C2.11852 6.00101 2 6.29844 2 6.62511C2 7.2119 2.7045 10.1156 5.28164 13.956C6.99974 16.5784 9.41854 18 11.6221 18C12.9429 18 13.106 17.6844 13.106 17.14V15.1578C13.106 14.5266 13.2321 14.3996 13.6503 14.3996C13.9575 14.3996 14.4865 14.5649 15.7201 15.8283C17.1291 17.3265 17.3624 17.999 18.1541 17.999H20.2325C20.8261 17.999 21.1228 17.6834 20.9522 17.0603C20.7654 16.4403 20.0922 15.5379 19.199 14.4702C18.7135 13.8612 17.9882 13.2058 17.7672 12.8782C17.4591 12.4557 17.5482 12.2692 17.7672 11.8941C17.7682 11.8951 20.3008 8.10217 20.5644 6.81264V6.81264Z" fill="#1B1D21"/>
</svg>
